External Loads File
version=1
nRows=31
nColumns=13
Range=5.000000e-03-10 seconds
endheader
time 	forceRightX 	forceRightY 	forceRightZ 	pointRightX 	pointRightY 	pointRightZ 	forceLeftX 	forceLeftY 	forceLeftZ 	pointLeftX 	pointLeftY 	pointLeftZ 		
5.005000 91.078644 -1.361681 -0.000000 0.149489 0.282735 -0.107221 -287.707422 834.918235 -0.000000 0.441185 0.337682 -0.362268
5.010000 93.568300 4.236672 -0.000000 0.149163 0.293170 -0.107109 -289.576837 868.506804 -0.000000 0.442410 0.326820 -0.361900
5.015000 94.049624 6.042346 -0.000000 0.149334 0.303513 -0.106973 -290.576498 901.826720 -0.000000 0.442997 0.315855 -0.361633
5.020000 91.959895 4.009381 -0.000000 0.150101 0.314216 -0.107137 -289.327149 934.999588 -0.000000 0.443105 0.304773 -0.361436
5.025000 86.799370 -1.348653 -0.000000 0.151575 0.324738 -0.107398 -287.132290 967.252848 -0.000000 0.442756 0.293548 -0.361270
5.030000 78.267688 -9.473512 -0.000000 0.153785 0.335377 -0.107766 -282.925940 998.367827 -0.000000 0.442169 0.282308 -0.361596
5.035000 66.364965 -19.528921 -0.000000 0.156921 0.345999 -0.107931 -276.344724 1027.615376 -0.000000 0.440822 0.271232 -0.361179
5.040000 51.487971 -30.598337 -0.000000 0.160289 0.356351 -0.108472 -267.576122 1053.837488 -0.000000 0.438903 0.260283 -0.361132
5.045000 34.296323 -41.987125 -0.000000 0.164352 0.367050 -0.108952 -253.784656 1076.372195 -0.000000 0.436331 0.249672 -0.361075
5.050000 15.822435 -52.921349 -0.000000 0.169098 0.377166 -0.109288 -236.964614 1093.109355 -0.000000 0.433055 0.239431 -0.361033
5.055000 -3.003222 -62.941689 -0.000000 0.174310 0.387046 -0.109606 -214.922981 1102.819328 -0.000000 0.429190 0.229325 -0.361132
5.060000 -21.244716 -71.646721 -0.000000 0.179970 0.396684 -0.109837 -188.413816 1103.696509 -0.000000 0.424977 0.219467 -0.361247
5.065000 -38.044898 -78.826759 -0.000000 0.185636 0.406018 -0.110260 -159.731700 1094.127767 -0.000000 0.420340 0.210141 -0.361217
5.070000 -53.032295 -84.240036 -0.000000 0.192181 0.415084 -0.110473 -127.515894 1073.648970 -0.000000 0.415267 0.201305 -0.361046
5.075000 -65.738817 -87.834324 -0.000000 0.198414 0.423837 -0.110932 -95.413659 1041.684269 -0.000000 0.409865 0.192786 -0.360804
5.080000 -76.310037 -89.331368 -0.000000 0.205287 0.432203 -0.110968 -62.468816 998.793293 -0.000000 0.404070 0.184612 -0.360727
5.085000 -84.784574 -88.647278 -0.000000 0.212402 0.440049 -0.111628 -31.223088 945.659209 -0.000000 0.397950 0.176931 -0.360679
5.090000 -91.514525 -85.551970 -0.000000 0.220104 0.447642 -0.111797 -1.449281 883.501843 -0.000000 0.391478 0.169959 -0.360602
5.095000 -96.598858 -80.215462 -0.000000 0.227581 0.454668 -0.111841 24.509482 813.704465 -0.000000 0.384682 0.163376 -0.360404
5.100000 -100.488187 -72.547152 -0.000000 0.235767 0.460965 -0.112230 48.408283 737.794801 -0.000000 0.377468 0.157278 -0.360228
5.105000 -103.238825 -62.979300 -0.000000 0.244006 0.466670 -0.112221 68.524926 657.567162 -0.000000 0.370000 0.151804 -0.360117
5.110000 -105.084490 -51.708451 -0.000000 0.252435 0.471985 -0.112277 85.684087 574.891912 -0.000000 0.362238 0.146924 -0.360016
5.115000 -106.156654 -38.961646 -0.000000 0.261276 0.476597 -0.112498 100.597470 491.654395 -0.000000 0.354033 0.142728 -0.359876
5.120000 -106.442039 -25.244978 -0.000000 0.269714 0.480770 -0.112630 112.780819 409.967209 -0.000000 0.345417 0.139299 -0.359841
5.125000 -106.084987 -10.501208 -0.000000 0.278385 0.484307 -0.112678 123.970762 331.322834 -0.000000 0.336144 0.136641 -0.359804
5.130000 -105.107668 5.105197 -0.000000 0.286895 0.487237 -0.112816 134.123231 257.294370 -0.000000 0.326307 0.134755 -0.359538
5.135000 -103.590586 21.778249 -0.000000 0.295397 0.489588 -0.112920 143.537685 188.864240 -0.000000 0.315987 0.133699 -0.359210
5.140000 -101.645523 39.849413 -0.000000 0.303786 0.491107 -0.112937 151.917325 126.698185 -0.000000 0.305267 0.133416 -0.358894
5.145000 -99.432977 59.810876 -0.000000 0.312110 0.491960 -0.113026 158.644887 71.213885 -0.000000 0.294392 0.133737 -0.358556
5.150000 -97.230566 82.184632 -0.000000 0.320132 0.492026 -0.112902 162.875687 22.867305 -0.000000 0.283547 0.134540 -0.358306
5.155000 -95.456725 107.504039 -0.000000 0.327776 0.491330 -0.112730 163.947238 -17.861623 -0.000000 0.273187 0.135918 -0.358217
